<svg xmlns="http://www.w3.org/2000/svg" viewBox="0 0 220 220" role="img" aria-label="Subzone mark">
  <defs>
    <linearGradient id="metal" x1="0%" y1="0%" x2="100%" y2="100%">
      <stop offset="0%" stop-color="#ffbb62"/>
      <stop offset="22%" stop-color="#ff951b"/>
      <stop offset="62%" stop-color="#d66109"/>
      <stop offset="100%" stop-color="#763008"/>
    </linearGradient>
    <linearGradient id="shine" x1="0%" y1="0%" x2="0%" y2="100%">
      <stop offset="0%" stop-color="#fff0d4" stop-opacity="0.95"/>
      <stop offset="38%" stop-color="#ffb45b" stop-opacity="0.25"/>
      <stop offset="100%" stop-color="#ff9837" stop-opacity="0"/>
    </linearGradient>
    <filter id="logoShadow" x="-40%" y="-40%" width="220%" height="220%">
      <feDropShadow dx="0" dy="10" stdDeviation="10" flood-color="#000000" flood-opacity="0.5"/>
      <feDropShadow dx="0" dy="0" stdDeviation="6" flood-color="#ff7c12" flood-opacity="0.24"/>
    </filter>
  </defs>
  <rect width="220" height="220" rx="42" fill="#060c14"/>
  <g stroke="#101d28" stroke-opacity="0.55" stroke-width="2">
    <path d="M16 54 92 16"/>
    <path d="M12 98 144 16"/>
    <path d="M44 208 210 106"/>
    <path d="M86 210 210 136"/>
    <path d="M156 18 210 48"/>
    <path d="M24 144 104 94"/>
  </g>
  <g filter="url(#logoShadow)">
    <path fill="url(#metal)" d="M70 58c8-12 20-18 36-18h68c7 0 11 4 11 11v13c0 7-4 11-11 11h-58c-6 0-11 2-14 7l-4 6c-3 6 1 12 8 12h41c15 0 25 4 31 12 6 8 7 18 2 30l-5 12c-7 17-22 26-45 26H52c-7 0-11-4-11-11v-12c0-7 4-11 11-11h65c7 0 12-3 15-8l2-5c3-7-1-12-8-12H88c-18 0-29-5-34-14-6-9-6-20 0-31l16-18Z"/>
    <path fill="url(#metal)" d="M113 108h69c6 0 10 4 10 10v12c0 4-2 8-5 10l-63 42c-3 2-6 3-9 3H72c-7 0-11-4-11-11v-9c0-4 2-8 5-10l31-22c4-3 8-4 13-4h28l-16 12H98l-10 8h60l-18 13H78l-17 12h53l49-33h-66c-7 0-10-4-10-10v-6c0-4 2-7 5-10l13-9c3-2 5-3 8-3Z"/>
    <path fill="none" stroke="url(#shine)" stroke-width="4.2" stroke-linecap="round" d="M89 52h81"/>
    <path fill="none" stroke="url(#shine)" stroke-width="3.6" stroke-linecap="round" d="M81 78h74"/>
    <path fill="none" stroke="url(#shine)" stroke-width="3.3" stroke-linecap="round" d="M118 115h63"/>
  </g>
</svg>
